<svg width="40" height="40" viewBox="0 0 40 40" fill="none" xmlns="http://www.w3.org/2000/svg">
<path d="M20 40C31.0457 40 40 31.0457 40 20C40 8.9543 31.0457 0 20 0C8.9543 0 0 8.9543 0 20C0 31.0457 8.9543 40 20 40Z" fill="url(#paint0_linear_2033_262)"/>
<path fill-rule="evenodd" clip-rule="evenodd" d="M9.03424 19.7819C14.8598 17.2274 18.7539 15.5763 20.7165 14.7663C26.2617 12.461 27.4143 12.0561 28.162 12.0249C28.3177 12.0249 28.6916 12.0561 28.9408 12.243C29.1277 12.3987 29.19 12.6168 29.2212 12.7726C29.2523 12.9283 29.2835 13.271 29.2523 13.5514C28.9408 16.6978 27.6635 24.3925 26.9782 27.9128C26.6978 29.4081 26.137 29.9065 25.6074 29.9688C24.4548 30.0623 23.5514 29.19 22.4299 28.4735C20.6853 27.3209 19.6884 26.6043 17.9751 25.4828C16.0124 24.1744 17.2897 23.4579 18.4112 22.3053C18.6916 21.9938 23.8317 17.352 23.9252 16.9159C23.9252 16.8536 23.9564 16.6666 23.8317 16.5732C23.7071 16.4797 23.5514 16.5109 23.4268 16.542C23.2398 16.5732 20.4361 18.4423 14.9844 22.1184C14.1744 22.6791 13.4579 22.9283 12.8037 22.9283C12.0872 22.9283 10.7165 22.5233 9.68845 22.1807C8.44234 21.7757 7.44545 21.5576 7.53891 20.8723C7.60122 20.5296 8.09966 20.1557 9.03424 19.7819Z" fill="white"/>
<defs>
<linearGradient id="paint0_linear_2033_262" x1="0" y1="19.9855" x2="39.9711" y2="19.9855" gradientUnits="userSpaceOnUse">
<stop stop-color="#2AABEE"/>
<stop offset="1" stop-color="#2AABEE"/>
</linearGradient>
</defs>
</svg>
