<svg width="34" height="31" viewBox="0 0 34 31" fill="none" xmlns="http://www.w3.org/2000/svg">
<path d="M18.6412 22.6805L24.0446 28.8238C26.0446 31.0988 27.0462 32.2371 28.0946 31.9588C29.1412 31.6821 29.5012 30.1855 30.2196 27.1905L34.2029 10.5771C35.3112 5.96381 35.8646 3.65881 34.6346 2.52047C33.4046 1.38214 31.2729 2.22881 27.0096 3.92047L7.2329 11.7755C3.8229 13.1305 2.1179 13.8071 2.00957 14.9705C1.99681 15.089 1.99681 15.2086 2.00957 15.3271C2.11457 16.4921 3.81623 17.1738 7.2229 18.5388C8.76457 19.1571 9.53624 19.4671 10.0896 20.0588C10.1518 20.1255 10.2118 20.1944 10.2696 20.2655C10.7796 20.8988 10.9962 21.7321 11.4312 23.3921L12.2462 26.5038C12.6679 28.1205 12.8796 28.9305 13.4346 29.0405C13.9896 29.1505 14.4712 28.4805 15.4362 27.1388L18.6412 22.6805ZM18.6412 22.6805L18.1129 22.1305C17.5096 21.5005 17.2079 21.1871 17.2079 20.7971C17.2079 20.4071 17.5079 20.0921 18.1129 19.4638L24.0679 13.2571" stroke="white" stroke-width="2.5" stroke-linecap="round" stroke-linejoin="round"/>
</svg>
