<svg width="25" height="25" viewBox="0 0 25 25" fill="none" xmlns="http://www.w3.org/2000/svg">
<path d="M12.2758 16.0503L15.6529 19.8899C16.9029 21.3118 17.5289 22.0232 18.1841 21.8493C18.8383 21.6763 19.0633 20.7409 19.5122 18.869L22.0018 8.48571C22.6945 5.60238 23.0404 4.16175 22.2716 3.4503C21.5029 2.73884 20.1706 3.268 17.506 4.3253L5.14556 9.23467C3.01431 10.0815 1.94869 10.5045 1.88098 11.2315C1.87301 11.3056 1.87301 11.3804 1.88098 11.4545C1.94661 12.1826 3.01015 12.6086 5.13931 13.4618C6.10285 13.8482 6.58515 14.042 6.93098 14.4118C6.96987 14.4534 7.00737 14.4965 7.04348 14.5409C7.36223 14.9368 7.49765 15.4576 7.76952 16.4951L8.2789 18.4399C8.54244 19.4503 8.67473 19.9565 9.02161 20.0253C9.36848 20.094 9.66952 19.6753 10.2726 18.8368L12.2758 16.0503ZM12.2758 16.0503L11.9456 15.7065C11.5685 15.3128 11.3799 15.117 11.3799 14.8732C11.3799 14.6295 11.5674 14.4326 11.9456 14.0399L15.6674 10.1607" stroke="white" stroke-width="2.5" stroke-linecap="round" stroke-linejoin="round"/>
</svg>
